<svg width="24" height="25" viewBox="0 0 24 25" fill="none" xmlns="http://www.w3.org/2000/svg">
<g clip-path="url(#clip0_1_164)">
<path d="M6 20.786V18.786C6 17.1947 6.63214 15.6686 7.75736 14.5434C8.88258 13.4182 10.4087 12.786 12 12.786C13.5913 12.786 15.1174 13.4182 16.2426 14.5434C17.3679 15.6686 18 17.1947 18 18.786V20.786C18 21.0512 17.8946 21.3056 17.7071 21.4931C17.5196 21.6807 17.2652 21.786 17 21.786H7C6.73478 21.786 6.48043 21.6807 6.29289 21.4931C6.10536 21.3056 6 21.0512 6 20.786Z" fill="#F2F2F2" stroke="#636363" stroke-width="1.5" stroke-linecap="round" stroke-linejoin="round"/>
<path d="M6 4.78601V6.78601C6 8.37731 6.63214 9.90343 7.75736 11.0287C8.88258 12.1539 10.4087 12.786 12 12.786C13.5913 12.786 15.1174 12.1539 16.2426 11.0287C17.3679 9.90343 18 8.37731 18 6.78601V4.78601C18 4.52079 17.8946 4.26644 17.7071 4.0789C17.5196 3.89137 17.2652 3.78601 17 3.78601H7C6.73478 3.78601 6.48043 3.89137 6.29289 4.0789C6.10536 4.26644 6 4.52079 6 4.78601Z" fill="#F2F2F2" stroke="#636363" stroke-width="1.5" stroke-linecap="round" stroke-linejoin="round"/>
</g>
<defs>
<clipPath id="clip0_1_164">
<rect width="24" height="24" fill="white" transform="translate(0 0.786011)"/>
</clipPath>
</defs>
</svg>
