<svg width="16" height="17" viewBox="0 0 16 17" fill="none" xmlns="http://www.w3.org/2000/svg">
<g clip-path="url(#clip0_1_130)">
<path d="M2 8.51855C2 9.30649 2.15519 10.0867 2.45672 10.8147C2.75825 11.5426 3.20021 12.204 3.75736 12.7612C4.31451 13.3183 4.97595 13.7603 5.7039 14.0618C6.43185 14.3634 7.21207 14.5186 8 14.5186C8.78793 14.5186 9.56815 14.3634 10.2961 14.0618C11.0241 13.7603 11.6855 13.3183 12.2426 12.7612C12.7998 12.204 13.2417 11.5426 13.5433 10.8147C13.8448 10.0867 14 9.30649 14 8.51855C14 6.92726 13.3679 5.40113 12.2426 4.27591C11.1174 3.1507 9.5913 2.51855 8 2.51855C6.4087 2.51855 4.88258 3.1507 3.75736 4.27591C2.63214 5.40113 2 6.92726 2 8.51855Z" stroke="#CC0808" stroke-linecap="round" stroke-linejoin="round"/>
<path d="M8 5.85187V8.51853" stroke="#CC0808" stroke-linecap="round" stroke-linejoin="round"/>
<path d="M8 11.1852H8.00667" stroke="#CC0808" stroke-linecap="round" stroke-linejoin="round"/>
</g>
<defs>
<clipPath id="clip0_1_130">
<rect width="16" height="16" fill="white" transform="translate(0 0.518555)"/>
</clipPath>
</defs>
</svg>
